<svg id="visual" viewBox="0 0 900 600" width="900" height="600" xmlns="http://www.w3.org/2000/svg" xmlns:xlink="http://www.w3.org/1999/xlink" version="1.1"><rect x="0" y="0" width="900" height="600" fill="#2b6777"></rect><path d="M0 299L129 299L129 286L257 286L257 308L386 308L386 354L514 354L514 368L643 368L643 335L771 335L771 354L900 354L900 364L900 601L900 601L771 601L771 601L643 601L643 601L514 601L514 601L386 601L386 601L257 601L257 601L129 601L129 601L0 601Z" fill="#c8d8e4"></path><path d="M0 359L129 359L129 416L257 416L257 463L386 463L386 435L514 435L514 420L643 420L643 385L771 385L771 404L900 404L900 414L900 601L900 601L771 601L771 601L643 601L643 601L514 601L514 601L386 601L386 601L257 601L257 601L129 601L129 601L0 601Z" fill="#709298"></path><path d="M0 490L129 490L129 494L257 494L257 472L386 472L386 452L514 452L514 529L643 529L643 443L771 443L771 514L900 514L900 544L900 601L900 601L771 601L771 601L643 601L643 601L514 601L514 601L386 601L386 601L257 601L257 601L129 601L129 601L0 601Z" fill="#285149"></path></svg>