<svg id="visual" viewBox="0 0 900 600" width="900" height="600" xmlns="http://www.w3.org/2000/svg" xmlns:xlink="http://www.w3.org/1999/xlink" version="1.1"><rect x="0" y="0" width="900" height="600" fill="#2b6777"></rect><path d="M0 324L129 324L129 345L257 345L257 281L386 281L386 319L514 319L514 276L643 276L643 262L771 262L771 285L900 285L900 266L900 0L900 0L771 0L771 0L643 0L643 0L514 0L514 0L386 0L386 0L257 0L257 0L129 0L129 0L0 0Z" fill="#c8d8e4"></path><path d="M0 247L129 247L129 177L257 177L257 156L386 156L386 183L514 183L514 234L643 234L643 168L771 168L771 247L900 247L900 196L900 0L900 0L771 0L771 0L643 0L643 0L514 0L514 0L386 0L386 0L257 0L257 0L129 0L129 0L0 0Z" fill="#709298"></path><path d="M0 85L129 85L129 111L257 111L257 151L386 151L386 151L514 151L514 102L643 102L643 144L771 144L771 148L900 148L900 108L900 0L900 0L771 0L771 0L643 0L643 0L514 0L514 0L386 0L386 0L257 0L257 0L129 0L129 0L0 0Z" fill="#285149"></path></svg>