<svg id="visual" viewBox="0 0 900 600" width="900" height="600" xmlns="http://www.w3.org/2000/svg" xmlns:xlink="http://www.w3.org/1999/xlink" version="1.1"><rect x="0" y="0" width="900" height="600" fill="#2b6777"></rect><path d="M350 0L494 0L494 86L451 86L451 171L360 171L360 257L330 257L330 343L336 343L336 429L510 429L510 514L509 514L509 600L0 600L0 514L0 514L0 429L0 429L0 343L0 343L0 257L0 257L0 171L0 171L0 86L0 86L0 0L0 0Z" fill="#c8d8e4"></path><path d="M323 0L297 0L297 86L282 86L282 171L358 171L358 257L308 257L308 343L303 343L303 429L223 429L223 514L361 514L361 600L0 600L0 514L0 514L0 429L0 429L0 343L0 343L0 257L0 257L0 171L0 171L0 86L0 86L0 0L0 0Z" fill="#709298"></path><path d="M153 0L168 0L168 86L97 86L97 171L225 171L225 257L101 257L101 343L181 343L181 429L88 429L88 514L161 514L161 600L0 600L0 514L0 514L0 429L0 429L0 343L0 343L0 257L0 257L0 171L0 171L0 86L0 86L0 0L0 0Z" fill="#285149"></path></svg>