<svg id="visual" viewBox="0 0 900 600" width="900" height="600" xmlns="http://www.w3.org/2000/svg" xmlns:xlink="http://www.w3.org/1999/xlink" version="1.1"><rect width="900" height="600" fill="#001829"></rect><g><g transform="translate(158 297)"><path d="M0 -32L32 0L0 32L-32 0Z" fill="#297EA6"></path></g><g transform="translate(270 580)"><path d="M0 -15L15 0L0 15L-15 0Z" fill="#297EA6"></path></g><g transform="translate(594 325)"><path d="M0 -25L25 0L0 25L-25 0Z" fill="#297EA6"></path></g><g transform="translate(74 543)"><path d="M0 -10L10 0L0 10L-10 0Z" fill="#297EA6"></path></g><g transform="translate(834 417)"><path d="M0 -16L16 0L0 16L-16 0Z" fill="#297EA6"></path></g><g transform="translate(158 91)"><path d="M0 -8L8 0L0 8L-8 0Z" fill="#297EA6"></path></g><g transform="translate(485 133)"><path d="M0 -29L29 0L0 29L-29 0Z" fill="#297EA6"></path></g><g transform="translate(781 209)"><path d="M0 -12L12 0L0 12L-12 0Z" fill="#297EA6"></path></g><g transform="translate(452 288)"><path d="M0 -11L11 0L0 11L-11 0Z" fill="#297EA6"></path></g><g transform="translate(415 550)"><path d="M0 -11L11 0L0 11L-11 0Z" fill="#297EA6"></path></g><g transform="translate(23 495)"><path d="M0 -30L30 0L0 30L-30 0Z" fill="#297EA6"></path></g><g transform="translate(531 528)"><path d="M0 -14L14 0L0 14L-14 0Z" fill="#297EA6"></path></g><g transform="translate(212 492)"><path d="M0 -13L13 0L0 13L-13 0Z" fill="#297EA6"></path></g><g transform="translate(14 163)"><path d="M0 -29L29 0L0 29L-29 0Z" fill="#297EA6"></path></g><g transform="translate(304 381)"><path d="M0 -26L26 0L0 26L-26 0Z" fill="#297EA6"></path></g><g transform="translate(853 338)"><path d="M0 -7L7 0L0 7L-7 0Z" fill="#297EA6"></path></g><g transform="translate(58 419)"><path d="M0 -18L18 0L0 18L-18 0Z" fill="#297EA6"></path></g><g transform="translate(78 185)"><path d="M0 -28L28 0L0 28L-28 0Z" fill="#297EA6"></path></g><g transform="translate(88 85)"><path d="M0 -18L18 0L0 18L-18 0Z" fill="#297EA6"></path></g><g transform="translate(581 394)"><path d="M0 -8L8 0L0 8L-8 0Z" fill="#297EA6"></path></g><g transform="translate(338 314)"><path d="M0 -26L26 0L0 26L-26 0Z" fill="#297EA6"></path></g><g transform="translate(27 347)"><path d="M0 -8L8 0L0 8L-8 0Z" fill="#297EA6"></path></g><g transform="translate(271 276)"><path d="M0 -25L25 0L0 25L-25 0Z" fill="#297EA6"></path></g><g transform="translate(415 160)"><path d="M0 -12L12 0L0 12L-12 0Z" fill="#297EA6"></path></g><g transform="translate(337 518)"><path d="M0 -16L16 0L0 16L-16 0Z" fill="#297EA6"></path></g><g transform="translate(26 46)"><path d="M0 -10L10 0L0 10L-10 0Z" fill="#297EA6"></path></g><g transform="translate(720 307)"><path d="M0 -23L23 0L0 23L-23 0Z" fill="#297EA6"></path></g><g transform="translate(773 539)"><path d="M0 -26L26 0L0 26L-26 0Z" fill="#297EA6"></path></g><g transform="translate(649 444)"><path d="M0 -12L12 0L0 12L-12 0Z" fill="#297EA6"></path></g><g transform="translate(889 493)"><path d="M0 -20L20 0L0 20L-20 0Z" fill="#297EA6"></path></g><g transform="translate(461 498)"><path d="M0 -26L26 0L0 26L-26 0Z" fill="#297EA6"></path></g><g transform="translate(347 20)"><path d="M0 -18L18 0L0 18L-18 0Z" fill="#297EA6"></path></g><g transform="translate(451 372)"><path d="M0 -23L23 0L0 23L-23 0Z" fill="#297EA6"></path></g><g transform="translate(730 478)"><path d="M0 -18L18 0L0 18L-18 0Z" fill="#297EA6"></path></g><g transform="translate(561 456)"><path d="M0 -18L18 0L0 18L-18 0Z" fill="#297EA6"></path></g><g transform="translate(646 51)"><path d="M0 -30L30 0L0 30L-30 0Z" fill="#297EA6"></path></g><g transform="translate(190 6)"><path d="M0 -24L24 0L0 24L-24 0Z" fill="#297EA6"></path></g><g transform="translate(27 252)"><path d="M0 -29L29 0L0 29L-29 0Z" fill="#297EA6"></path></g><g transform="translate(885 39)"><path d="M0 -30L30 0L0 30L-30 0Z" fill="#297EA6"></path></g><g transform="translate(659 251)"><path d="M0 -24L24 0L0 24L-24 0Z" fill="#297EA6"></path></g><g transform="translate(537 54)"><path d="M0 -27L27 0L0 27L-27 0Z" fill="#297EA6"></path></g><g transform="translate(329 196)"><path d="M0 -29L29 0L0 29L-29 0Z" fill="#297EA6"></path></g><g transform="translate(653 561)"><path d="M0 -28L28 0L0 28L-28 0Z" fill="#297EA6"></path></g><g transform="translate(194 206)"><path d="M0 -11L11 0L0 11L-11 0Z" fill="#297EA6"></path></g><g transform="translate(348 445)"><path d="M0 -28L28 0L0 28L-28 0Z" fill="#297EA6"></path></g><g transform="translate(747 130)"><path d="M0 -16L16 0L0 16L-16 0Z" fill="#297EA6"></path></g><g transform="translate(857 215)"><path d="M0 -16L16 0L0 16L-16 0Z" fill="#297EA6"></path></g><g transform="translate(698 386)"><path d="M0 -13L13 0L0 13L-13 0Z" fill="#297EA6"></path></g><g transform="translate(215 336)"><path d="M0 -28L28 0L0 28L-28 0Z" fill="#297EA6"></path></g><g transform="translate(249 54)"><path d="M0 -18L18 0L0 18L-18 0Z" fill="#297EA6"></path></g><g transform="translate(697 179)"><path d="M0 -27L27 0L0 27L-27 0Z" fill="#297EA6"></path></g><g transform="translate(349 121)"><path d="M0 -14L14 0L0 14L-14 0Z" fill="#297EA6"></path></g><g transform="translate(188 564)"><path d="M0 -21L21 0L0 21L-21 0Z" fill="#297EA6"></path></g><g transform="translate(804 20)"><path d="M0 -18L18 0L0 18L-18 0Z" fill="#297EA6"></path></g><g transform="translate(217 409)"><path d="M0 -10L10 0L0 10L-10 0Z" fill="#297EA6"></path></g><g transform="translate(423 1)"><path d="M0 -10L10 0L0 10L-10 0Z" fill="#297EA6"></path></g><g transform="translate(495 425)"><path d="M0 -11L11 0L0 11L-11 0Z" fill="#297EA6"></path></g><g transform="translate(393 233)"><path d="M0 -26L26 0L0 26L-26 0Z" fill="#297EA6"></path></g><g transform="translate(545 178)"><path d="M0 -20L20 0L0 20L-20 0Z" fill="#297EA6"></path></g><g transform="translate(278 145)"><path d="M0 -30L30 0L0 30L-30 0Z" fill="#297EA6"></path></g><g transform="translate(111 467)"><path d="M0 -23L23 0L0 23L-23 0Z" fill="#297EA6"></path></g><g transform="translate(107 13)"><path d="M0 -10L10 0L0 10L-10 0Z" fill="#297EA6"></path></g><g transform="translate(669 116)"><path d="M0 -8L8 0L0 8L-8 0Z" fill="#297EA6"></path></g><g transform="translate(134 370)"><path d="M0 -14L14 0L0 14L-14 0Z" fill="#297EA6"></path></g><g transform="translate(863 118)"><path d="M0 -27L27 0L0 27L-27 0Z" fill="#297EA6"></path></g><g transform="translate(626 191)"><path d="M0 -7L7 0L0 7L-7 0Z" fill="#297EA6"></path></g><g transform="translate(587 573)"><path d="M0 -8L8 0L0 8L-8 0Z" fill="#297EA6"></path></g><g transform="translate(564 262)"><path d="M0 -25L25 0L0 25L-25 0Z" fill="#297EA6"></path></g><g transform="translate(87 281)"><path d="M0 -9L9 0L0 9L-9 0Z" fill="#297EA6"></path></g><g transform="translate(769 380)"><path d="M0 -17L17 0L0 17L-17 0Z" fill="#297EA6"></path></g><g transform="translate(713 16)"><path d="M0 -18L18 0L0 18L-18 0Z" fill="#297EA6"></path></g><g transform="translate(431 441)"><path d="M0 -12L12 0L0 12L-12 0Z" fill="#297EA6"></path></g><g transform="translate(473 211)"><path d="M0 -23L23 0L0 23L-23 0Z" fill="#297EA6"></path></g><g transform="translate(869 555)"><path d="M0 -28L28 0L0 28L-28 0Z" fill="#297EA6"></path></g><g transform="translate(800 89)"><path d="M0 -20L20 0L0 20L-20 0Z" fill="#297EA6"></path></g><g transform="translate(475 595)"><path d="M0 -23L23 0L0 23L-23 0Z" fill="#297EA6"></path></g><g transform="translate(525 326)"><path d="M0 -7L7 0L0 7L-7 0Z" fill="#297EA6"></path></g><g transform="translate(211 129)"><path d="M0 -12L12 0L0 12L-12 0Z" fill="#297EA6"></path></g><g transform="translate(578 120)"><path d="M0 -23L23 0L0 23L-23 0Z" fill="#297EA6"></path></g><g transform="translate(463 52)"><path d="M0 -11L11 0L0 11L-11 0Z" fill="#297EA6"></path></g><g transform="translate(357 580)"><path d="M0 -24L24 0L0 24L-24 0Z" fill="#297EA6"></path></g><g transform="translate(279 484)"><path d="M0 -15L15 0L0 15L-15 0Z" fill="#297EA6"></path></g><g transform="translate(812 482)"><path d="M0 -12L12 0L0 12L-12 0Z" fill="#297EA6"></path></g><g transform="translate(787 273)"><path d="M0 -10L10 0L0 10L-10 0Z" fill="#297EA6"></path></g><g transform="translate(131 229)"><path d="M0 -18L18 0L0 18L-18 0Z" fill="#297EA6"></path></g><g transform="translate(895 397)"><path d="M0 -14L14 0L0 14L-14 0Z" fill="#297EA6"></path></g><g transform="translate(18 591)"><path d="M0 -27L27 0L0 27L-27 0Z" fill="#297EA6"></path></g><g transform="translate(616 501)"><path d="M0 -30L30 0L0 30L-30 0Z" fill="#297EA6"></path></g><g transform="translate(385 377)"><path d="M0 -14L14 0L0 14L-14 0Z" fill="#297EA6"></path></g><g transform="translate(717 595)"><path d="M0 -19L19 0L0 19L-19 0Z" fill="#297EA6"></path></g><g transform="translate(897 286)"><path d="M0 -16L16 0L0 16L-16 0Z" fill="#297EA6"></path></g><g transform="translate(588 4)"><path d="M0 -24L24 0L0 24L-24 0Z" fill="#297EA6"></path></g><g transform="translate(141 162)"><path d="M0 -17L17 0L0 17L-17 0Z" fill="#297EA6"></path></g><g transform="translate(813 598)"><path d="M0 -13L13 0L0 13L-13 0Z" fill="#297EA6"></path></g></g></svg>